<svg xmlns="http://www.w3.org/2000/svg" width="64" height="64" viewBox="0 0 64 64" fill="none"><path d="M32 10V54M24 54H40M32 18L41 13M32 30L23 25M32 40L41 35M38 13C38 11.9391 38.5268 10.9217 39.4645 10.1716C40.4021 9.42143 41.6739 9 43 9C44.3261 9 45.5979 9.42143 46.5355 10.1716C47.4732 10.9217 48 11.9391 48 13H38ZM16 25C16 23.9391 16.5268 22.9217 17.4645 22.1716C18.4021 21.4214 19.6739 21 21 21C22.3261 21 23.5979 21.4214 24.5355 22.1716C25.4732 22.9217 26 23.9391 26 25H16ZM38 35C38 33.9391 38.5268 32.9217 39.4645 32.1716C40.4021 31.4214 41.6739 31 43 31C44.3261 31 45.5979 31.4214 46.5355 32.1716C47.4732 32.9217 48 33.9391 48 35H38Z" stroke="white" stroke-width="2.75" stroke-linecap="round" stroke-linejoin="round"/></svg>
